<svg id="Layer_1" data-name="Layer 1" xmlns="http://www.w3.org/2000/svg" viewBox="0 0 214.57 194.52">
    <defs>
        <style>
            .cls-1 {
                fill: #231f20;
                fill-rule: evenodd;
            }
        </style>
    </defs>
    <title>better-call-saul-seeklogo</title>
    <path class="cls-1"
        d="M156.71,152.43c18.33,1.74,41.7,2.3,60.68-.33-7.41,3.55-17.53,9.28-28.38,10.12C175.08,163.29,163.82,159.64,156.71,152.43Z"
        transform="translate(-5 -3)" />
    <path class="cls-1"
        d="M40.56,189.62c19.41,3.72,45.59,2.52,68.19,1,22.8-1.55,46.1-2.34,60.36-12.07-15.25-7.59-41.73-4.28-61.66-7.18,1.32-4.19,8.51-3.66,13.37-4.24,8.84-1.06,21.62-.25,32.63.65,10,.82,25.16,2.63,23.81,12.4-.74,5.41-9.87,8.4-15.66,10.44-7.41,2.62-14.39,3.44-21.85,4.24C108.09,198.24,65.17,200.12,40.56,189.62Z"
        transform="translate(-5 -3)" />
    <path class="cls-1"
        d="M60.46,41.82c.77,4.49,1.92,9.24,2.94,14,.93,4.39,2.91,9.48,1.31,13.38-3.12,0-3-4-3.59-6.2-1.8-7.17-3.75-16.1-5.22-23.82A67.37,67.37,0,0,1,46.11,29.1C32.77,42.08,20.7,56.33,6.63,68.58,18.51,53.81,32,40.62,44.15,26.16,38.77,19.73,35.85,3,48.39,3,54.7,3,64.9,9.55,69.93,12.14c6.65,3.41,13.52,7.44,19.24,11.09,13,8.31,23.37,17.66,33.94,26.75,22.73,19.57,46,36.43,71.12,50.57,3.75-3.75,6-9,10.77-11.74,3.24,3.82,2.72,11.41,4.56,16.64a6.8,6.8,0,0,0,3.92-.66c1.42-12-6.38-19.05-13.7-24.47-2.39-1.76-6.37-3.12-6.2-6.85,2.88-2.87,6.39.74,9.13,2.94,6.07,4.86,15.28,14.22,16.64,22.51,1.14,6.92-2.26,12.63-8.48,12.72,1.85,9.36,3.27,18.54,5.22,29,.37,2,2.73,8.27,0,8.81s-2.77-5.9-3.26-8.48c-1.81-9.47-4-20-5.55-29.37a55.66,55.66,0,0,1-14-4.24c-12.41,13.26-22.67,28.66-35.23,41.76,1.84-3.88,4.8-7.23,7.5-10.76,8-10.43,16.6-21.5,24.47-32.3C169,96,148.9,85,131.91,70.86c-8.75,27.9-18,57-26.42,85.48-2.83,9.52-4.68,19.32-9.46,27.73-1.62-5.18.85-10.36,2-15.33,7.81-35.15,15.87-71,23.17-107-18.28-14.79-37.74-38-62.32-49.59-3.63-1.72-10.7-5.66-14-3.27-4.33,3.11-.77,11.41,1,15,3.12-.6,4.38-5.83,8.16-6.85,1.87,2.89,2.07,6.88,2.93,10.77.8,3.57,1.34,8.56,2.62,11.09,1.63,3.24,5.55,3.33,8.15,5.54C65.59,44.53,62.5,42.84,60.46,41.82ZM48.07,27.47c1,1.05,2,2.76,3.26,4.24,1.08,1.3,2.61,3.49,3.59,2.94-1-3.89-1.37-8.42-2.61-12.07C51.14,24.45,49,25.32,48.07,27.47Zm149.42,74.39a66.92,66.92,0,0,0,8.49,2.61c-1.12-3.13-.76-7.73-2.61-10.12C201.74,97.19,199.16,99.06,197.49,101.86Z"
        transform="translate(-5 -3)" />
    <path class="cls-1"
        d="M64.05,72.82C57.73,76.52,47,82.41,36,83.26c-13.31,1-25.35-3.05-31-10.11C23.74,75.33,45.62,75.72,64.05,72.82Z"
        transform="translate(-5 -3)" />
</svg>